<mxfile host="app.diagrams.net" modified="2024-04-16T00:13:32.000Z" agent="Mozilla/5.0 (Windows NT 10.0; Win64; x64) AppleWebKit/537.36 (KHTML, like Gecko) Chrome/123.0.0.0 Safari/537.36" etag="3DiUqXlFj0VL2cRZQby9" version="24.2.5" type="device">
  <diagram name="Página-1" id="Fa3pujt2B9ZRqw9Y3X-I">
    <mxGraphModel dx="696" dy="1572" grid="0" gridSize="10" guides="1" tooltips="1" connect="1" arrows="1" fold="1" page="1" pageScale="1" pageWidth="827" pageHeight="1169" background="#ffffff" math="0" shadow="0">
      <root>
        <mxCell id="0" />
        <mxCell id="1" parent="0" />
        <mxCell id="9kUGyyA_Okr9J2uUxnQa-1" value="Competencia" style="rounded=1;whiteSpace=wrap;html=1;fontStyle=1;labelBackgroundColor=none;fillColor=#5D7F99;strokeColor=#D0CEE2;fontColor=#1A1A1A;" vertex="1" parent="1">
          <mxGeometry x="60" y="80" width="120" height="60" as="geometry" />
        </mxCell>
        <mxCell id="9kUGyyA_Okr9J2uUxnQa-2" value="Corredor" style="rounded=1;whiteSpace=wrap;html=1;fontStyle=1;labelBackgroundColor=none;fillColor=#5D7F99;strokeColor=#D0CEE2;fontColor=#1A1A1A;" vertex="1" parent="1">
          <mxGeometry x="550" y="80" width="120" height="60" as="geometry" />
        </mxCell>
        <mxCell id="9kUGyyA_Okr9J2uUxnQa-3" value="Participación" style="rhombus;whiteSpace=wrap;html=1;fontStyle=1;labelBackgroundColor=none;fillColor=#5D7F99;strokeColor=#D0CEE2;fontColor=#1A1A1A;" vertex="1" parent="1">
          <mxGeometry x="280" y="70" width="170" height="80" as="geometry" />
        </mxCell>
        <mxCell id="9kUGyyA_Okr9J2uUxnQa-4" value="Id" style="ellipse;whiteSpace=wrap;html=1;fontStyle=1;labelBackgroundColor=none;fillColor=#5D7F99;strokeColor=#D0CEE2;fontColor=#1A1A1A;" vertex="1" parent="1">
          <mxGeometry x="10" y="-10" width="90" height="50" as="geometry" />
        </mxCell>
        <mxCell id="9kUGyyA_Okr9J2uUxnQa-5" value="Nom.Carrera" style="ellipse;whiteSpace=wrap;html=1;fontStyle=1;labelBackgroundColor=none;fillColor=#5D7F99;strokeColor=#D0CEE2;fontColor=#1A1A1A;" vertex="1" parent="1">
          <mxGeometry x="10" y="180" width="90" height="50" as="geometry" />
        </mxCell>
        <mxCell id="9kUGyyA_Okr9J2uUxnQa-6" value="Id.Categoría" style="ellipse;whiteSpace=wrap;html=1;fontStyle=1;labelBackgroundColor=none;fillColor=#5D7F99;strokeColor=#D0CEE2;fontColor=#1A1A1A;" vertex="1" parent="1">
          <mxGeometry x="260" y="-10" width="90" height="50" as="geometry" />
        </mxCell>
        <mxCell id="9kUGyyA_Okr9J2uUxnQa-7" value="Triunfos" style="ellipse;whiteSpace=wrap;html=1;fontStyle=1;labelBackgroundColor=none;fillColor=#5D7F99;strokeColor=#D0CEE2;fontColor=#1A1A1A;" vertex="1" parent="1">
          <mxGeometry x="390" y="-10" width="90" height="50" as="geometry" />
        </mxCell>
        <mxCell id="9kUGyyA_Okr9J2uUxnQa-8" value="Id.Corredor" style="ellipse;whiteSpace=wrap;html=1;fontStyle=1;labelBackgroundColor=none;fillColor=#5D7F99;strokeColor=#D0CEE2;fontColor=#1A1A1A;" vertex="1" parent="1">
          <mxGeometry x="390" y="180" width="90" height="50" as="geometry" />
        </mxCell>
        <mxCell id="9kUGyyA_Okr9J2uUxnQa-9" value="Id.Competencia" style="ellipse;whiteSpace=wrap;html=1;fontStyle=1;labelBackgroundColor=none;fillColor=#5D7F99;strokeColor=#D0CEE2;fontColor=#1A1A1A;" vertex="1" parent="1">
          <mxGeometry x="250" y="180" width="100" height="50" as="geometry" />
        </mxCell>
        <mxCell id="9kUGyyA_Okr9J2uUxnQa-10" value="Id" style="ellipse;whiteSpace=wrap;html=1;fontStyle=1;labelBackgroundColor=none;fillColor=#5D7F99;strokeColor=#D0CEE2;fontColor=#1A1A1A;" vertex="1" parent="1">
          <mxGeometry x="620" y="-10" width="90" height="50" as="geometry" />
        </mxCell>
        <mxCell id="9kUGyyA_Okr9J2uUxnQa-11" value="Nom.Corredor" style="ellipse;whiteSpace=wrap;html=1;fontStyle=1;labelBackgroundColor=none;fillColor=#5D7F99;strokeColor=#D0CEE2;fontColor=#1A1A1A;" vertex="1" parent="1">
          <mxGeometry x="620" y="180" width="90" height="50" as="geometry" />
        </mxCell>
        <mxCell id="9kUGyyA_Okr9J2uUxnQa-12" value="" style="endArrow=classic;html=1;rounded=0;entryX=0.5;entryY=0;entryDx=0;entryDy=0;labelBackgroundColor=none;strokeColor=#736CA8;fontColor=default;" edge="1" parent="1" target="9kUGyyA_Okr9J2uUxnQa-1">
          <mxGeometry width="50" height="50" relative="1" as="geometry">
            <mxPoint x="60" y="40" as="sourcePoint" />
            <mxPoint x="110" y="-10" as="targetPoint" />
          </mxGeometry>
        </mxCell>
        <mxCell id="9kUGyyA_Okr9J2uUxnQa-13" value="" style="endArrow=classic;html=1;rounded=0;entryX=0.5;entryY=1;entryDx=0;entryDy=0;labelBackgroundColor=none;strokeColor=#736CA8;fontColor=default;" edge="1" parent="1" target="9kUGyyA_Okr9J2uUxnQa-1">
          <mxGeometry width="50" height="50" relative="1" as="geometry">
            <mxPoint x="60" y="180" as="sourcePoint" />
            <mxPoint x="110" y="130" as="targetPoint" />
          </mxGeometry>
        </mxCell>
        <mxCell id="9kUGyyA_Okr9J2uUxnQa-15" value="" style="endArrow=classic;html=1;rounded=0;exitX=0.5;exitY=1;exitDx=0;exitDy=0;entryX=0;entryY=0;entryDx=0;entryDy=0;labelBackgroundColor=none;strokeColor=#736CA8;fontColor=default;" edge="1" parent="1" source="9kUGyyA_Okr9J2uUxnQa-6" target="9kUGyyA_Okr9J2uUxnQa-3">
          <mxGeometry width="50" height="50" relative="1" as="geometry">
            <mxPoint x="340" y="140" as="sourcePoint" />
            <mxPoint x="390" y="90" as="targetPoint" />
          </mxGeometry>
        </mxCell>
        <mxCell id="9kUGyyA_Okr9J2uUxnQa-16" value="" style="endArrow=classic;html=1;rounded=0;entryX=0;entryY=1;entryDx=0;entryDy=0;exitX=0.5;exitY=0;exitDx=0;exitDy=0;labelBackgroundColor=none;strokeColor=#736CA8;fontColor=default;" edge="1" parent="1" source="9kUGyyA_Okr9J2uUxnQa-9" target="9kUGyyA_Okr9J2uUxnQa-3">
          <mxGeometry width="50" height="50" relative="1" as="geometry">
            <mxPoint x="230" y="170" as="sourcePoint" />
            <mxPoint x="290" y="130" as="targetPoint" />
          </mxGeometry>
        </mxCell>
        <mxCell id="9kUGyyA_Okr9J2uUxnQa-17" value="" style="endArrow=classic;html=1;rounded=0;exitX=0.5;exitY=0;exitDx=0;exitDy=0;labelBackgroundColor=none;strokeColor=#736CA8;fontColor=default;" edge="1" parent="1" source="9kUGyyA_Okr9J2uUxnQa-8">
          <mxGeometry width="50" height="50" relative="1" as="geometry">
            <mxPoint x="340" y="140" as="sourcePoint" />
            <mxPoint x="402" y="130" as="targetPoint" />
          </mxGeometry>
        </mxCell>
        <mxCell id="9kUGyyA_Okr9J2uUxnQa-18" value="" style="endArrow=classic;html=1;rounded=0;exitX=0.5;exitY=1;exitDx=0;exitDy=0;entryX=1;entryY=0;entryDx=0;entryDy=0;labelBackgroundColor=none;strokeColor=#736CA8;fontColor=default;" edge="1" parent="1" source="9kUGyyA_Okr9J2uUxnQa-7" target="9kUGyyA_Okr9J2uUxnQa-3">
          <mxGeometry width="50" height="50" relative="1" as="geometry">
            <mxPoint x="340" y="140" as="sourcePoint" />
            <mxPoint x="390" y="90" as="targetPoint" />
          </mxGeometry>
        </mxCell>
        <mxCell id="9kUGyyA_Okr9J2uUxnQa-19" value="" style="endArrow=classic;html=1;rounded=0;entryX=0.5;entryY=1;entryDx=0;entryDy=0;labelBackgroundColor=none;strokeColor=#736CA8;fontColor=default;" edge="1" parent="1" target="9kUGyyA_Okr9J2uUxnQa-2">
          <mxGeometry width="50" height="50" relative="1" as="geometry">
            <mxPoint x="670" y="180" as="sourcePoint" />
            <mxPoint x="720" y="130" as="targetPoint" />
          </mxGeometry>
        </mxCell>
        <mxCell id="9kUGyyA_Okr9J2uUxnQa-20" value="" style="endArrow=classic;html=1;rounded=0;exitX=0.5;exitY=1;exitDx=0;exitDy=0;entryX=0.5;entryY=0;entryDx=0;entryDy=0;labelBackgroundColor=none;strokeColor=#736CA8;fontColor=default;" edge="1" parent="1" source="9kUGyyA_Okr9J2uUxnQa-10" target="9kUGyyA_Okr9J2uUxnQa-2">
          <mxGeometry width="50" height="50" relative="1" as="geometry">
            <mxPoint x="340" y="140" as="sourcePoint" />
            <mxPoint x="390" y="90" as="targetPoint" />
          </mxGeometry>
        </mxCell>
        <mxCell id="9kUGyyA_Okr9J2uUxnQa-21" value="" style="endArrow=classic;startArrow=classic;html=1;rounded=0;exitX=1;exitY=0.5;exitDx=0;exitDy=0;entryX=0;entryY=0.5;entryDx=0;entryDy=0;labelBackgroundColor=none;strokeColor=#736CA8;fontColor=default;" edge="1" parent="1" source="9kUGyyA_Okr9J2uUxnQa-1" target="9kUGyyA_Okr9J2uUxnQa-3">
          <mxGeometry width="50" height="50" relative="1" as="geometry">
            <mxPoint x="340" y="140" as="sourcePoint" />
            <mxPoint x="390" y="90" as="targetPoint" />
          </mxGeometry>
        </mxCell>
        <mxCell id="9kUGyyA_Okr9J2uUxnQa-22" value="" style="endArrow=classic;startArrow=classic;html=1;rounded=0;exitX=1;exitY=0.5;exitDx=0;exitDy=0;entryX=0;entryY=0.5;entryDx=0;entryDy=0;labelBackgroundColor=none;strokeColor=#736CA8;fontColor=default;" edge="1" parent="1">
          <mxGeometry width="50" height="50" relative="1" as="geometry">
            <mxPoint x="450" y="109.5" as="sourcePoint" />
            <mxPoint x="550" y="109.5" as="targetPoint" />
          </mxGeometry>
        </mxCell>
        <mxCell id="9kUGyyA_Okr9J2uUxnQa-23" value="1 : N" style="text;html=1;align=center;verticalAlign=middle;whiteSpace=wrap;rounded=0;fontColor=#1A1A1A;fontStyle=1;labelBackgroundColor=none;" vertex="1" parent="1">
          <mxGeometry x="190" y="70" width="60" height="30" as="geometry" />
        </mxCell>
        <mxCell id="9kUGyyA_Okr9J2uUxnQa-24" value="1 : N" style="text;html=1;align=center;verticalAlign=middle;whiteSpace=wrap;rounded=0;fontColor=#1A1A1A;fontStyle=1;labelBackgroundColor=none;" vertex="1" parent="1">
          <mxGeometry x="480" y="70" width="60" height="30" as="geometry" />
        </mxCell>
        <mxCell id="9kUGyyA_Okr9J2uUxnQa-25" value="M : N" style="text;html=1;align=center;verticalAlign=middle;whiteSpace=wrap;rounded=0;fontColor=#1A1A1A;fontStyle=1;labelBackgroundColor=none;" vertex="1" parent="1">
          <mxGeometry x="335" y="36" width="60" height="30" as="geometry" />
        </mxCell>
      </root>
    </mxGraphModel>
  </diagram>
</mxfile>
